M48
; DRILL file {KiCad 7.0.5} date Wed Mar 27 09:25:34 2024
; FORMAT={-:-/ absolute / metric / decimal}
; #@! TF.CreationDate,2024-03-27T09:25:34+04:00
; #@! TF.GenerationSoftware,Kicad,Pcbnew,7.0.5
; #@! TF.FileFunction,Plated,1,2,PTH
FMAT,2
METRIC
; #@! TA.AperFunction,Plated,PTH,ComponentDrill
T1C0.800
; #@! TA.AperFunction,Plated,PTH,ComponentDrill
T2C1.000
; #@! TA.AperFunction,Plated,PTH,ComponentDrill
T3C1.330
; #@! TA.AperFunction,Plated,PTH,ComponentDrill
T4C1.520
%
G90
G05
T1
X57.15Y88.9
X57.15Y101.6
X57.15Y107.95
X57.15Y120.65
X57.15Y127.0
X57.15Y139.7
X57.15Y165.1
X63.5Y88.9
X63.5Y101.6
X63.5Y133.35
X63.5Y146.05
X63.5Y158.75
X63.5Y171.45
X69.85Y152.4
X69.85Y160.02
X69.85Y165.1
X76.2Y133.35
X76.2Y139.7
X76.2Y147.32
X76.2Y149.86
X76.2Y152.4
X76.2Y154.94
X76.2Y157.48
X76.2Y160.02
X76.2Y162.56
X76.2Y165.1
X76.2Y171.45
X82.55Y107.95
X82.55Y120.65
X82.55Y171.45
X83.82Y139.7
X83.82Y147.32
X83.82Y149.86
X83.82Y152.4
X83.82Y154.94
X83.82Y157.48
X83.82Y160.02
X83.82Y162.56
X83.82Y165.1
X88.9Y120.65
X88.9Y133.35
X88.9Y139.7
X88.9Y158.75
X88.9Y165.1
X95.25Y101.6
X95.25Y114.3
X95.25Y120.65
X95.25Y133.35
X95.25Y171.45
X101.6Y101.6
X101.6Y114.3
X101.6Y139.7
X101.6Y158.75
X101.6Y165.1
X107.95Y101.6
X107.95Y114.3
T2
X56.0Y177.8
X63.5Y177.8
X88.9Y146.05
X88.9Y153.55
X95.25Y146.05
X95.25Y153.55
X101.6Y146.05
X101.6Y153.55
X101.6Y171.45
X109.1Y171.45
T3
X57.15Y149.86
X57.15Y152.4
X57.15Y154.94
X67.31Y114.3
X67.31Y120.65
X67.31Y127.0
X69.85Y114.3
X69.85Y120.65
X69.85Y127.0
X69.85Y140.97
X69.85Y143.51
X69.85Y146.05
X72.39Y114.3
X72.39Y120.65
X72.39Y127.0
X82.55Y124.46
X82.55Y127.0
X82.55Y129.54
X88.9Y107.95
X88.9Y110.49
X88.9Y113.03
X101.6Y121.92
X101.6Y124.46
X101.6Y127.0
X107.95Y121.92
X107.95Y124.46
X107.95Y127.0
X107.95Y137.16
X107.95Y139.7
X107.95Y142.24
T4
X72.39Y83.185
X72.39Y86.995
X72.39Y90.805
X72.39Y94.615
X76.2Y69.85
X77.47Y184.15
X81.28Y69.85
X82.55Y184.15
X92.71Y83.185
X92.71Y90.805
X92.71Y94.615
T0
M30
